<?xml version="1.0" standalone="no"?>
<!DOCTYPE svg PUBLIC "-//W3C//DTD SVG 20010904//EN"
 "http://www.w3.org/TR/2001/REC-SVG-20010904/DTD/svg10.dtd">
<svg version="1.0" xmlns="http://www.w3.org/2000/svg"
 width="1000.000000pt" height="1000.000000pt" viewBox="0 0 1000.000000 1000.000000"
 preserveAspectRatio="xMidYMid meet">

<g transform="translate(0.000000,1000.000000) scale(0.100000,-0.100000)"
fill="#000000" stroke="none">
<path d="M4066 7917 c-22 -12 -53 -39 -70 -60 l-31 -39 -5 -463 -5 -464 -142
-144 c-133 -133 -143 -146 -143 -181 0 -44 36 -86 74 -86 13 0 102 13 198 30
l173 30 885 0 886 0 169 -30 c207 -36 219 -37 250 -5 26 25 33 76 16 103 -4 8
-68 74 -142 148 l-134 135 -5 464 -5 463 -31 39 c-17 21 -48 48 -70 60 l-39
23 -895 0 -895 0 -39 -23z m1792 -159 c9 -9 12 -128 12 -473 l0 -460 56 -58
c31 -32 55 -59 53 -61 -2 -3 -24 -1 -49 3 -61 11 -1870 7 -1895 -4 -18 -8 -19
-7 -5 11 8 10 34 40 57 66 l43 47 0 459 c0 343 3 461 12 470 17 17 1699 17
1716 0z"/>
<path d="M4439 7561 c-48 -48 -36 -111 26 -137 28 -11 126 -14 535 -14 409 0
507 3 535 14 62 26 74 89 26 137 l-29 29 -532 0 -532 0 -29 -29z"/>
<path d="M4439 7271 c-36 -37 -38 -79 -5 -118 l24 -28 542 0 542 0 24 28 c33
39 31 81 -5 118 l-29 29 -532 0 -532 0 -29 -29z"/>
<path d="M4439 6981 c-39 -40 -39 -82 0 -122 l30 -30 536 3 537 3 24 28 c33
39 31 81 -5 118 l-29 29 -532 0 -532 0 -29 -29z"/>
<path d="M2690 6994 c-92 -20 -180 -66 -252 -132 -120 -112 -178 -242 -178
-404 0 -154 46 -270 151 -383 34 -36 60 -67 58 -69 -2 -1 -29 -17 -59 -34
-141 -80 -255 -202 -325 -347 -81 -169 -80 -157 -80 -785 l0 -555 23 -57 c50
-124 156 -230 281 -280 55 -23 62 -23 568 -26 l512 -3 3 -517 3 -517 26 -55
c33 -70 79 -116 149 -149 50 -24 66 -26 180 -26 109 0 132 3 176 23 64 29 126
92 155 157 l22 50 1 770 c1 853 3 821 -65 914 -16 23 -29 42 -29 43 0 2 175 2
390 0 l390 -2 0 -941 c0 -1035 -3 -986 61 -1008 41 -14 257 -14 298 0 64 22
61 -27 61 1009 l0 940 391 0 390 0 -26 -34 c-15 -19 -35 -58 -46 -86 -18 -48
-19 -84 -19 -833 l0 -782 24 -50 c53 -111 146 -166 296 -173 160 -8 261 31
331 126 56 77 59 107 59 649 l0 492 513 3 c506 3 513 3 568 26 125 50 231 156
281 280 l23 57 0 555 c0 628 1 615 -80 785 -70 145 -184 267 -325 347 -30 17
-57 33 -59 35 -2 1 23 31 56 66 104 108 153 231 153 383 0 163 -55 291 -173
400 -78 73 -143 109 -243 134 -190 49 -376 -3 -520 -145 -217 -213 -221 -551
-9 -772 35 -37 63 -68 62 -68 -163 -76 -314 -222 -392 -382 -37 -76 -75 -205
-75 -255 l0 -28 -365 0 c-345 0 -368 -1 -405 -20 -69 -35 -100 -103 -100 -217
l0 -63 -519 0 -518 0 -5 83 c-5 97 -26 147 -76 185 l-35 27 -375 5 -375 5 -17
85 c-32 157 -108 298 -220 410 -60 60 -202 160 -227 160 -7 0 -13 1 -13 3 0 1
29 32 64 68 167 171 204 430 93 644 -43 83 -154 191 -239 233 -120 59 -241 74
-368 46z m283 -202 c110 -54 182 -151 207 -278 30 -154 -58 -322 -208 -396
-61 -30 -74 -33 -162 -33 -84 0 -102 3 -157 29 -69 31 -148 107 -181 172 -69
136 -45 305 60 420 83 90 169 125 295 121 67 -3 92 -9 146 -35z m4369 6 c160
-73 253 -248 219 -411 -7 -33 -22 -79 -33 -101 -33 -65 -112 -141 -181 -172
-54 -26 -73 -29 -157 -29 -82 0 -103 4 -152 27 -113 53 -195 160 -217 283 -33
180 81 362 262 421 67 22 190 13 259 -18z m-4342 -927 c189 -60 357 -229 410
-411 36 -125 37 -120 -14 -120 -44 0 -44 0 -51 40 -8 46 -38 94 -78 124 -26
19 -44 21 -193 24 -156 3 -166 2 -205 -20 -23 -13 -51 -40 -65 -64 -23 -39
-24 -48 -24 -242 0 -208 5 -239 43 -281 51 -56 80 -61 360 -61 l257 0 0 -70 0
-70 -630 0 -630 0 0 318 c0 362 5 396 72 526 86 165 261 294 448 330 60 11
236 -2 300 -23z m4335 14 c176 -45 332 -166 412 -320 69 -134 73 -160 73 -524
l0 -321 -630 0 -630 0 0 69 0 70 274 3 274 3 39 31 c69 55 73 73 73 303 0 201
0 205 -25 248 -45 75 -78 85 -270 81 -148 -3 -166 -5 -192 -24 -40 -30 -70
-78 -78 -124 -7 -40 -7 -40 -51 -40 -50 0 -48 -9 -22 95 37 154 167 314 320
395 121 65 304 88 433 55z m-4161 -563 c7 -48 41 -100 85 -129 l34 -23 503 0
504 0 0 -65 0 -65 -675 0 -675 0 0 153 c0 85 3 157 7 160 3 4 52 7 108 7 l102
0 7 -38z m3874 -124 l3 -158 -676 0 -675 0 0 65 0 65 504 0 503 0 34 23 c44
29 78 81 85 129 l7 39 106 -3 106 -3 3 -157z m-758 -373 l0 -35 -601 0 -601 0
-29 -29 -29 -29 0 -951 0 -951 -30 0 -30 0 0 951 0 951 -29 29 -29 29 -601 0
-601 0 0 35 0 35 1290 0 1290 0 0 -35z m-2467 -299 c42 -17 83 -66 97 -114 8
-25 10 -269 8 -775 l-3 -739 -37 -34 c-38 -34 -38 -34 -138 -34 -100 0 -100 0
-138 34 l-37 34 -5 576 -5 575 -23 23 -23 23 -567 5 c-560 5 -567 5 -608 27
-67 36 -101 70 -133 135 -29 57 -31 69 -31 170 l0 108 805 0 c658 0 812 -3
838 -14z m3997 -93 c0 -92 -4 -115 -24 -158 -34 -73 -69 -110 -138 -144 l-61
-31 -544 0 c-582 0 -586 0 -613 -49 -6 -13 -10 -214 -10 -576 0 -507 -2 -560
-17 -586 -28 -47 -71 -61 -179 -57 -91 3 -95 4 -126 36 l-33 32 -3 738 c-2
505 0 749 8 774 13 47 55 97 95 114 24 11 189 13 838 14 l807 0 0 -107z"/>
<path d="M177 2342 c-22 -24 -21 -35 1 -55 36 -33 112 -13 112 28 0 20 -40 45
-71 45 -14 0 -33 -8 -42 -18z m77 -8 c24 -9 19 -33 -8 -40 -31 -7 -66 3 -66
21 0 21 41 32 74 19z"/>
<path d="M160 2232 c0 -5 7 -17 15 -28 13 -17 14 -17 15 -1 0 14 9 17 50 17
28 0 50 5 50 10 0 6 -28 10 -65 10 -36 0 -65 -4 -65 -8z"/>
<path d="M222 2168 c-5 -7 -12 -22 -14 -33 -4 -18 -6 -17 -18 8 -14 30 -33 38
-23 10 11 -31 46 -63 69 -63 23 0 54 24 54 41 0 39 -46 64 -68 37z m43 -34 c0
-10 -8 -20 -17 -22 -18 -3 -26 27 -11 42 12 11 28 0 28 -20z"/>
<path d="M270 2045 l0 -25 -20 20 c-11 11 -33 20 -50 20 -23 0 -31 -5 -36 -24
-6 -25 1 -46 15 -46 4 0 7 10 7 23 -1 32 34 34 64 2 32 -34 40 -32 40 15 0 22
-4 40 -10 40 -5 0 -10 -11 -10 -25z"/>
<path d="M222 1958 c-5 -7 -12 -22 -14 -33 -4 -18 -6 -17 -16 8 -11 26 -32 38
-32 18 0 -21 53 -71 75 -71 28 0 55 24 55 49 0 35 -46 55 -68 29z m43 -34 c0
-10 -8 -20 -17 -22 -18 -3 -26 27 -11 42 12 11 28 0 28 -20z"/>
<path d="M235 1850 c-3 -5 -19 -7 -35 -4 -25 6 -30 3 -36 -21 -4 -15 -2 -31 5
-38 15 -15 92 -18 108 -5 18 14 16 43 -3 62 -18 18 -30 20 -39 6z m-27 -37
c-4 -22 -22 -20 -26 1 -2 10 3 16 13 16 10 0 15 -7 13 -17z m60 0 c-2 -10 -10
-18 -18 -18 -8 0 -16 8 -18 18 -2 12 3 17 18 17 15 0 20 -5 18 -17z"/>
<path d="M188 1743 c-19 -5 -34 -45 -23 -62 11 -18 22 -12 21 12 -1 32 34 34
64 2 32 -34 40 -32 40 15 0 44 -20 56 -21 13 0 -16 -3 -22 -6 -15 -7 17 -54
39 -75 35z"/>
<path d="M188 1643 c-19 -5 -34 -45 -23 -62 11 -18 22 -12 21 12 -1 32 34 34
64 2 32 -34 40 -32 40 15 0 44 -20 56 -21 13 0 -16 -3 -22 -6 -15 -7 17 -54
39 -75 35z"/>
<path d="M188 1543 c-19 -5 -34 -45 -23 -62 11 -18 22 -12 21 12 -1 32 34 34
64 2 32 -34 40 -32 40 15 0 44 -20 56 -21 13 0 -16 -3 -22 -6 -15 -7 17 -54
39 -75 35z"/>
<path d="M196 1451 c-4 -6 -12 -9 -17 -6 -5 4 -9 2 -9 -4 0 -5 6 -12 13 -15 9
-5 9 -7 0 -12 -10 -4 -9 -9 2 -20 8 -9 20 -12 26 -8 6 3 14 1 18 -5 5 -8 15
-9 31 -3 19 7 21 10 7 15 -23 9 -22 28 1 20 12 -4 11 0 -7 17 -17 17 -25 20
-31 10 -6 -9 -10 -8 -17 5 -7 12 -12 14 -17 6z m39 -41 c-3 -5 -10 -10 -16
-10 -5 0 -9 5 -9 10 0 6 7 10 16 10 8 0 12 -4 9 -10z"/>
<path d="M140 1280 c0 -6 38 -10 95 -10 57 0 95 4 95 10 0 6 -38 10 -95 10
-57 0 -95 -4 -95 -10z"/>
<path d="M261 1189 c-22 -18 -25 -19 -42 -3 -11 10 -22 14 -27 10 -4 -4 4 -16
17 -27 l23 -19 -46 0 c-34 0 -46 -4 -46 -15 0 -12 15 -15 75 -15 60 0 75 3 75
15 0 9 -9 15 -22 15 l-23 0 24 19 c13 10 22 23 20 29 -2 6 -14 3 -28 -9z"/>
<path d="M190 1081 c0 -27 27 -51 55 -51 24 0 45 25 45 54 0 25 -18 19 -22 -6
-2 -17 -10 -23 -28 -23 -18 0 -26 6 -28 23 -4 27 -22 30 -22 3z"/>
<path d="M206 994 c-19 -18 -20 -28 -6 -55 12 -22 59 -26 78 -7 26 26 1 78
-38 78 -10 0 -26 -7 -34 -16z m59 -29 c0 -22 -31 -33 -47 -17 -17 17 -1 44 24
40 15 -2 23 -10 23 -23z"/>
<path d="M190 900 c0 -5 -7 -10 -15 -10 -8 0 -15 -4 -15 -10 0 -5 6 -10 14
-10 8 0 16 -6 19 -12 4 -10 7 -10 18 0 7 6 26 12 41 12 28 0 48 24 33 38 -4 4
-10 1 -12 -5 -5 -15 -63 -18 -63 -3 0 6 -4 10 -10 10 -5 0 -10 -4 -10 -10z"/>
<path d="M212 810 c-19 -34 -35 -34 -40 -2 -4 29 -22 28 -22 -1 0 -52 52 -63
78 -17 20 35 37 34 37 -4 -1 -31 19 -29 23 3 8 53 -49 69 -76 21z"/>
<path d="M200 675 c-21 -25 3 -65 38 -65 15 0 33 5 40 12 15 15 16 54 2 63 -6
3 -10 -5 -10 -19 0 -14 -4 -28 -10 -31 -6 -4 -10 7 -10 24 0 24 -4 31 -19 31
-10 0 -24 -7 -31 -15z m30 -26 c0 -11 -4 -17 -10 -14 -5 3 -10 13 -10 21 0 8
5 14 10 14 6 0 10 -9 10 -21z"/>
<path d="M202 578 c-7 -7 -12 -20 -12 -30 0 -13 -8 -18 -25 -18 -16 0 -25 -6
-25 -15 0 -13 13 -15 73 -13 67 3 72 5 75 26 7 46 -55 81 -86 50z m56 -20 c19
-19 14 -28 -18 -28 -18 0 -30 5 -30 13 0 28 27 36 48 15z"/>
<path d="M206 464 c-19 -18 -20 -28 -6 -55 21 -39 90 -16 90 30 0 16 -30 41
-50 41 -10 0 -26 -7 -34 -16z m59 -29 c0 -22 -31 -33 -47 -17 -17 17 -1 44 24
40 15 -2 23 -10 23 -23z"/>
<path d="M140 350 c0 -5 11 -10 25 -10 15 0 25 -6 25 -14 0 -45 73 -62 92 -22
20 45 6 56 -72 56 -40 0 -70 -4 -70 -10z m128 -27 c-2 -12 -12 -18 -28 -18
-16 0 -26 6 -28 18 -3 13 3 17 28 17 25 0 31 -4 28 -17z"/>
<path d="M220 246 c-36 -13 -66 -29 -68 -37 -1 -9 20 -21 68 -35 38 -12 70
-17 70 -12 0 6 -9 12 -20 15 -14 4 -20 14 -20 34 0 22 5 29 20 29 11 0 20 7
20 15 0 8 -1 15 -2 14 -2 0 -32 -11 -68 -23z m8 -51 c-7 -7 -48 7 -48 15 0 15
45 16 48 2 2 -8 2 -15 0 -17z"/>
</g>
</svg>
